<svg height="512" viewBox="0 0 64 64" width="512" xmlns="http://www.w3.org/2000/svg"><g id="Twotone"><g id="Color_copy" data-name="Color copy"><g><path d="m42.342 30.514a17.041 17.041 0 0 1 -2.828 2.828l10.143 10.143 2.828-2.828z" fill="#a8dba8"/><g><rect fill="#79bd9a" height="18" rx="2" transform="matrix(.707 -.707 .707 .707 -15.439 50)" width="8" x="48.636" y="34.636"/><path d="m29 3a17 17 0 1 0 17 17 17 17 0 0 0 -17-17zm0 30a13 13 0 1 1 13-13 13 13 0 0 1 -13 13z" fill="#a8dba8"/><g fill="#cff09e"><path d="m38.192 29.192a13 13 0 0 1 -18.384-18.384z"/><path d="m29 7a12.972 12.972 0 0 0 -10.561 5.439 12.985 12.985 0 0 1 18.122 18.122 12.991 12.991 0 0 0 -7.561-23.561z"/></g></g><g><g fill="#a8dba8"><circle cx="29" cy="27" r="2"/><circle cx="22" cy="19" r="2"/><circle cx="34" cy="15" r="2"/></g><circle cx="8" cy="30" fill="#cff09e" r="2"/><circle cx="52" cy="24" fill="#cff09e" r="2"/><circle cx="59" cy="13" fill="#cff09e" r="2"/></g><g fill="#79bd9a"><path d="m3 53h28v8h-28z"/><path d="m3 45h28v8h-28z"/><path d="m3 37h28v8h-28z"/></g></g></g><g id="Stroke_Close_copy" data-name="Stroke Close copy"><g fill="#3b8686"><path d="m29 34a14 14 0 1 0 -14-14 14.015 14.015 0 0 0 14 14zm0-2a12.016 12.016 0 0 1 -11.4-8.272l2.8-2.2a2.943 2.943 0 0 0 2.706.254l3.294 3.759a2.965 2.965 0 0 0 -.4 1.459 3 3 0 1 0 5.006-2.215l2.834-6.8c.054 0 .1.016.16.016a2.986 2.986 0 0 0 2.077-.844l4.9 2.452c0 .131.02.26.02.392a12.013 12.013 0 0 1 -11.997 11.999zm-7-12a1 1 0 1 1 1-1 1 1 0 0 1 -1 1zm7 6a1 1 0 1 1 -1 1 1 1 0 0 1 1-1zm4-11a1 1 0 1 1 1 1 1 1 0 0 1 -1-1zm-4-7a12.012 12.012 0 0 1 11.66 9.212l-3.7-1.849a2.9 2.9 0 0 0 .04-.363 3 3 0 1 0 -5.007 2.214l-2.833 6.8c-.054 0-.105-.016-.16-.016a2.974 2.974 0 0 0 -1.106.217l-3.289-3.758a2.965 2.965 0 0 0 .395-1.457 3 3 0 0 0 -6 0 2.956 2.956 0 0 0 .17.953l-2.056 1.614a11.921 11.921 0 0 1 11.886-13.567z"/><path d="m51.222 35.151a2.993 2.993 0 0 0 -3.405-.577l-4.162-4.161a17.883 17.883 0 0 0 3.145-7.894l2.234 1.118a2.9 2.9 0 0 0 -.034.363 3 3 0 0 0 6 0 2.966 2.966 0 0 0 -.646-1.837l3.975-6.245a2.963 2.963 0 0 0 .671.082 3 3 0 1 0 -3-3 2.966 2.966 0 0 0 .646 1.837l-3.975 6.245a2.933 2.933 0 0 0 -2.748.762l-2.942-1.472c0-.125.019-.246.019-.372a18 18 0 1 0 -35.079 5.648l-2.321 1.823a2.992 2.992 0 1 0 -2.6 5.345v3.184h-4a1 1 0 0 0 -1 1v24a1 1 0 0 0 1 1h28a1 1 0 0 0 1-1v-23.271a17.891 17.891 0 0 0 7.413-3.074l4.161 4.162a3 3 0 0 0 .576 3.405l9.9 9.9a3 3 0 0 0 4.243 0l2.828-2.828a3 3 0 0 0 0-4.243zm7.778-23.151a1 1 0 1 1 -1 1 1 1 0 0 1 1-1zm-7 11a1 1 0 1 1 -1 1 1 1 0 0 1 1-1zm-23-19a16 16 0 1 1 -16 16 16.019 16.019 0 0 1 16-16zm-21 25a1 1 0 1 1 -1 1 1 1 0 0 1 1-1zm1 3.816a2.94 2.94 0 0 0 1.831-3.769l1.869-1.466a18.1 18.1 0 0 0 8.091 8.419h-11.791zm21 19.184h-26v-6h26zm0 8h-26v-6h26zm0-22v6h-26v-6zm12.4-6.019 3.877 3.877-1.414 1.414-3.882-3.872a18.152 18.152 0 0 0 1.419-1.419zm17.312 15.9-2.828 2.828a1.023 1.023 0 0 1 -1.414 0l-9.9-9.9a1 1 0 0 1 0-1.414l2.83-2.829a1 1 0 0 1 1.414 0l9.9 9.9a1 1 0 0 1 0 1.415z"/><circle cx="18" cy="57" r="1"/><circle cx="22" cy="57" r="1"/><circle cx="26" cy="57" r="1"/><path d="m7 58h6a1 1 0 0 0 0-2h-6a1 1 0 0 0 0 2z"/><circle cx="18" cy="49" r="1"/><circle cx="22" cy="49" r="1"/><circle cx="26" cy="49" r="1"/><path d="m7 50h6a1 1 0 0 0 0-2h-6a1 1 0 0 0 0 2z"/><circle cx="18" cy="41" r="1"/><circle cx="22" cy="41" r="1"/><circle cx="26" cy="41" r="1"/><path d="m7 42h6a1 1 0 0 0 0-2h-6a1 1 0 0 0 0 2z"/></g></g></g></svg>