<svg height="480pt" viewBox="0 0 480 480" width="480pt" xmlns="http://www.w3.org/2000/svg"><path d="m152 280c-35.347656 0-64 28.652344-64 64v128h384v-128c0-35.347656-28.652344-64-64-64zm0 0" fill="#a8dba8"/><path d="m304 8h-112c-17.671875 0-32 14.328125-32 32v80c-.027344 28.609375 15.222656 55.054688 40 69.359375 0-1.757813 0-3.519531 0-5.359375v-80h160v77.839844c25.074219-18.007813 39.957031-46.972656 40-77.839844 0-53.019531-42.980469-96-96-96zm0 0" fill="#79bd9a"/><path d="m280 264c-14.050781-.023438-27.847656-3.75-40-10.800781v26.800781c0 22.089844 17.910156 40 40 40s40-17.910156 40-40v-26.800781c-12.152344 7.050781-25.949219 10.777343-40 10.800781zm0 0" fill="#cff09e"/><path d="m232 184v-24c0-17.671875 14.328125-32 32-32h96v-24h-24l-16-24-14.320312 24h-105.679688v80c0 44.183594 35.816406 80 80 80 5.371094-.003906 10.730469-.542969 16-1.601562-37.253906-7.601563-64.007812-40.375-64-78.398438zm0 0" fill="#cff09e"/><path d="m24 360h128c8.835938 0 16 7.164062 16 16v80c0 8.835938-7.164062 16-16 16h-128c-8.835938 0-16-7.164062-16-16v-80c0-8.835938 7.164062-16 16-16zm0 0" fill="#79bd9a"/><path d="m72 328h32c4.417969 0 8 3.582031 8 8v24h-48v-24c0-4.417969 3.582031-8 8-8zm0 0" fill="#a8dba8"/><path d="m112 416c0 13.253906-10.746094 24-24 24s-24-10.746094-24-24 10.746094-24 24-24 24 10.746094 24 24zm0 0" fill="#cff09e"/><path d="m32 144v-24h-24v112h112v-24h-24c-35.347656 0-64-28.652344-64-64zm0 0" fill="#cff09e"/><path d="m80 168c0 8.835938-7.164062 16-16 16s-16-7.164062-16-16 7.164062-16 16-16 16 7.164062 16 16zm0 0" fill="#a8dba8"/><path d="m56 184h16c8.835938 0 16 7.164062 16 16v32h-48v-32c0-8.835938 7.164062-16 16-16zm0 0" fill="#a8dba8"/><g fill="#3b8686"><path d="m328 160c0 4.417969-3.582031 8-8 8s-8-3.582031-8-8 3.582031-8 8-8 8 3.582031 8 8zm0 0"/><path d="m248 160c0 4.417969-3.582031 8-8 8s-8-3.582031-8-8 3.582031-8 8-8 8 3.582031 8 8zm0 0"/><path d="m320 352c0 4.417969-3.582031 8-8 8s-8-3.582031-8-8 3.582031-8 8-8 8 3.582031 8 8zm0 0"/><path d="m320 384c0 4.417969-3.582031 8-8 8s-8-3.582031-8-8 3.582031-8 8-8 8 3.582031 8 8zm0 0"/><path d="m392 384c-4.417969 0-8 3.582031-8 8v80c0 4.417969 3.582031 8 8 8s8-3.582031 8-8v-80c0-4.417969-3.582031-8-8-8zm0 0"/><path d="m408 272h-80v-14.320312c24.433594-15.894532 39.414062-42.855469 40-72 34.742188-27.382813 48.363281-73.746094 33.949219-115.570313-14.417969-41.824219-53.710938-69.949219-97.949219-70.109375h-112c-22.089844 0-40 17.910156-40 40v80c.09375 29.90625 15.371094 57.71875 40.558594 73.839844 2.914062 26.15625 17.386718 49.636718 39.441406 64v14.160156h-80c-30.496094.019531-57.675781 19.246094-67.839844 48h-12.160156c-8.835938 0-16 7.164062-16 16v16h-16v-8c0-4.417969-3.582031-8-8-8s-8 3.582031-8 8v8c-13.253906 0-24 10.746094-24 24v80c0 13.253906 10.746094 24 24 24h128c13.253906 0 24-10.746094 24-24v-80c0-13.253906-10.746094-24-24-24h-32v-16c0-8.835938-7.164062-16-16-16h-2.480469c9.253907-19.503906 28.890625-31.957031 50.480469-32h80.71875c3.417969 20.109375 19.171875 35.863281 39.28125 39.28125v72.71875c0 4.417969 3.582031 8 8 8s8-3.582031 8-8v-72.71875c20.109375-3.417969 35.863281-19.171875 39.28125-39.28125h80.71875c30.929688 0 56 25.070312 56 56v128c0 4.417969 3.582031 8 8 8s8-3.582031 8-8v-128c0-39.765625-32.234375-72-72-72zm-248 104v80c0 4.417969-3.582031 8-8 8h-128c-4.417969 0-8-3.582031-8-8v-80c0-4.417969 3.582031-8 8-8h128c4.417969 0 8 3.582031 8 8zm-56-24h-32v-16h32zm64-232v-80c0-13.253906 10.746094-24 24-24h112c34.996094.117188 66.59375 20.964844 80.480469 53.085938 13.882812 32.125 7.414062 69.421874-16.480469 94.992187v-60.078125c0-4.417969-3.582031-8-8-8h-19.679688l-13.679687-20.398438c-1.488281-2.214843-3.976563-3.539062-6.640625-3.539062s-5.152344 1.324219-6.640625 3.539062l-13.679687 20.398438h-99.679688c-4.417969 0-8 3.582031-8 8v69.359375c-15.191406-13.585937-23.914062-32.976563-24-53.359375zm40 64v-72h96c2.675781-.015625 5.167969-1.363281 6.640625-3.601562l9.359375-14 9.359375 14c1.472656 2.238281 3.964844 3.585937 6.640625 3.601562h16v72c0 39.765625-32.234375 72-72 72s-72-32.234375-72-72zm72 128c-17.671875 0-32-14.328125-32-32v-14.078125c20.5625 8.101563 43.4375 8.101563 64 0v14.078125c0 17.671875-14.328125 32-32 32zm0 0"/><path d="m88 384c-17.671875 0-32 14.328125-32 32s14.328125 32 32 32 32-14.328125 32-32-14.328125-32-32-32zm0 48c-8.835938 0-16-7.164062-16-16s7.164062-16 16-16 16 7.164062 16 16-7.164062 16-16 16zm0 0"/><path d="m144 392c0 4.417969-3.582031 8-8 8s-8-3.582031-8-8 3.582031-8 8-8 8 3.582031 8 8zm0 0"/><path d="m8 240h112c4.417969 0 8-3.582031 8-8v-112c0-4.417969-3.582031-8-8-8h-112c-4.417969 0-8 3.582031-8 8v112c0 4.417969 3.582031 8 8 8zm48-72c0-4.417969 3.582031-8 8-8s8 3.582031 8 8-3.582031 8-8 8-8-3.582031-8-8zm-8 56v-24c0-4.417969 3.582031-8 8-8h16c4.417969 0 8 3.582031 8 8v24zm-32-96h96v96h-16v-24c-.019531-8.21875-4.246094-15.855469-11.199219-20.238281 2.082031-3.574219 3.183594-7.628907 3.199219-11.761719 0-13.253906-10.746094-24-24-24s-24 10.746094-24 24c.015625 4.132812 1.117188 8.1875 3.199219 11.761719-6.953125 4.382812-11.179688 12.019531-11.199219 20.238281v24h-16zm0 0"/></g></svg>