<svg xmlns="http://www.w3.org/2000/svg" viewBox="0 0 801.95 631.54"><defs><style>.cls-1{isolation:isolate;}.cls-2{fill:#d1d3d4;}.cls-3{fill:#898797;}.cls-3,.cls-8{opacity:0.1;}.cls-4{fill:#009e4e;}.cls-5{fill:#e6ebea;}.cls-6{fill:#fdda7f;}.cls-7{fill:#fdb90c;}.cls-8{fill:#231f20;mix-blend-mode:multiply;}.cls-9{fill:#fff;}.cls-10{fill:#008c45;}.cls-11{fill:#d0d2d3;}</style></defs><g class="cls-1"><g id="Layer_2" data-name="Layer 2"><g id="Layer_1-2" data-name="Layer 1"><g id="Store"><g id="Store-2" data-name="Store"><rect class="cls-2" x="50.12" y="130.32" width="701.71" height="400.98"/><path class="cls-3" d="M50.12,260.58h.05a50.08,50.08,0,0,0,50.12-50.13,50.12,50.12,0,1,0,100.24,0,50.13,50.13,0,1,0,100.25,0,50.12,50.12,0,1,0,100.24,0,50.12,50.12,0,1,0,100.24,0,50.13,50.13,0,1,0,100.25,0,50.12,50.12,0,1,0,100.24,0,50,50,0,0,0,50.08,50.12V130.32H50.12Z"/><rect class="cls-4" x="10.03" y="531.29" width="781.9" height="100.25" rx="11.22"/><rect class="cls-5" x="70.17" y="270.66" width="180.44" height="260.63"/><rect class="cls-6" x="90.22" y="330.8" width="140.34" height="180.44"/><rect class="cls-7" x="90.22" y="290.71" width="140.34" height="40.1"/><rect class="cls-5" x="551.34" y="270.66" width="180.44" height="260.63"/><rect class="cls-6" x="571.39" y="330.8" width="140.34" height="180.44"/><rect class="cls-7" x="571.39" y="290.71" width="140.34" height="40.1"/><rect class="cls-5" x="270.66" y="270.66" width="260.63" height="360.88"/><rect class="cls-6" x="290.71" y="330.8" width="220.54" height="20.05"/><rect class="cls-7" x="290.71" y="290.71" width="220.54" height="40.1"/><rect class="cls-7" x="290.71" y="370.9" width="220.54" height="260.63"/><rect class="cls-6" x="290.71" y="411" width="100.24" height="220.54"/><rect class="cls-8" x="350.85" y="526.28" width="30.07" height="10.02" rx="0.91"/><rect class="cls-4" x="350.85" y="521.27" width="30.07" height="10.02" rx="0.91"/><rect class="cls-6" x="411" y="411" width="100.24" height="220.54"/><rect class="cls-8" x="421.02" y="526.28" width="30.07" height="10.02" rx="0.91"/><rect class="cls-4" x="421.02" y="521.27" width="30.07" height="10.02" rx="0.91"/><path class="cls-4" d="M100.25,180.44A50.13,50.13,0,0,1,0,180.44Z"/><path class="cls-4" d="M300.73,180.44a50.12,50.12,0,0,1-100.24,0Z"/><path class="cls-4" d="M501.22,180.44a50.12,50.12,0,0,1-100.24,0Z"/><path class="cls-4" d="M701.71,180.44a50.13,50.13,0,0,1-100.25,0Z"/><path class="cls-9" d="M200.49,180.44a50.12,50.12,0,0,1-100.24,0Z"/><path class="cls-9" d="M401,180.44a50.13,50.13,0,0,1-100.25,0Z"/><path class="cls-9" d="M601.46,180.44a50.12,50.12,0,0,1-100.24,0Z"/><path class="cls-9" d="M802,180.44a50.12,50.12,0,0,1-100.24,0Z"/><polygon class="cls-10" points="237.86 0 200.49 180.44 300.73 180.44 319.42 0 237.86 0"/><path class="cls-10" d="M68.35,15.43,0,180.44H100.25L156.3,0H91.45A25,25,0,0,0,68.35,15.43Z"/><polygon class="cls-10" points="564.09 0 601.47 180.44 701.71 180.44 645.65 0 564.09 0"/><polygon class="cls-10" points="400.98 0 400.98 180.44 501.22 180.44 482.54 0 400.98 0"/><polygon class="cls-11" points="156.3 0 100.25 180.44 200.49 180.44 237.86 0 156.3 0"/><polygon class="cls-11" points="319.42 0 300.73 180.44 400.98 180.44 400.98 0 319.42 0"/><polygon class="cls-11" points="482.54 0 501.22 180.44 601.47 180.44 564.09 0 482.54 0"/><path class="cls-11" d="M645.25,0l56.46,180.44H802l-68.76-165A25,25,0,0,0,710.09,0Z"/></g></g></g></g></g></svg>