<?xml version="1.0" encoding="iso-8859-1"?>
<!-- Generator: Adobe Illustrator 19.0.0, SVG Export Plug-In . SVG Version: 6.00 Build 0)  -->
<svg version="1.1" id="Capa_1" xmlns="http://www.w3.org/2000/svg" xmlns:xlink="http://www.w3.org/1999/xlink" x="0px" y="0px"
	 viewBox="0 0 378.731 378.731" style="enable-background:new 0 0 378.731 378.731;" xml:space="preserve">
<g>
	<path style="fill:#A6D84E;" d="M12.816,202.731l35.2-14.4c0.8-0.8,2.4,0,3.2,1.6v0.8l-0.8,16v18.4c0,0.8-0.8,2.4-2.4,2.4h-0.8
		l-34.4-20c-0.8-0.8-1.6-1.6-0.8-3.2C12.016,203.531,12.816,202.731,12.816,202.731z"/>
	<path style="fill:#A6D84E;" d="M190.416,189.931c-3.2-1.6-6.4-3.2-10.4-4.8l-28.8-10.4l56.8-24v48L190.416,189.931z"/>
	<path style="fill:#A6D84E;" d="M16.816,129.131l35.2-14.4c1.6-0.8,2.4-0.8,4,0l61.6,36.8c1.6,0.8,2.4,0.8,4,0l80.8-34.4
		c2.4-0.8,4.8,0,5.6,2.4c0,0.8,0,0.8,0,1.6v35.2c0,1.6-0.8,3.2-2.4,4l-45.6,19.2l-3.2-0.8c-20-3.2-40.8-3.2-61.6,0.8l-4,0.8
		l-74.4-43.2c-2.4-1.6-2.4-4-1.6-6.4C15.216,129.931,16.016,129.931,16.816,129.131z"/>
	<path style="fill:#A6D84E;" d="M16.016,165.931l36.8-15.2c0.8-0.8,2.4-0.8,3.2,0l36.8,21.6c1.6,0.8,2.4,3.2,1.6,4.8
		c-0.8,0.8-0.8,1.6-1.6,1.6l-16.8,6.4c-4.8,1.6-9.6,4-14.4,6.4l-6.4,4l-40-23.2c-1.6-0.8-2.4-3.2-0.8-4.8
		C14.416,166.731,15.216,165.931,16.016,165.931z"/>
	<path style="fill:#A6D84E;" d="M248.816,97.931l48.8-20.8c1.6-0.8,2.4-0.8,4,0l35.2,20c2.4,0.8,3.2,4,1.6,5.6
		c-0.8,0.8-1.6,1.6-2.4,2.4l-84,36c-2.4,0.8-4.8,0-5.6-2.4c0-0.8,0-0.8,0-1.6v-35.2C246.416,100.331,247.216,97.931,248.816,97.931z
		"/>
</g>
<path style="fill:#DAFFA4;" d="M127.216,375.531c-48,0-85.6-16-85.6-36.8v-31.2l18.4,12c14.4,9.6,40,15.2,66.4,15.2
	s52-5.6,66.4-15.2l18.4-12v31.2C212.816,359.531,175.216,375.531,127.216,375.531z"/>
<g>
	<path style="fill:#A6D84E;" d="M16.816,93.131l92.8-37.6c1.6-0.8,3.2,0,4,0.8l92,60.8c2.4,0.8,3.2,4,1.6,5.6
		c-0.8,0.8-1.6,1.6-2.4,2.4l-84,36c-1.6,0.8-2.4,0.8-4,0l-100.8-60c-2.4-1.6-2.4-4-1.6-6.4
		C15.216,94.731,16.016,93.931,16.816,93.131z"/>
	<path style="fill:#A6D84E;" d="M248.816,133.131l48.8-20.8c1.6-0.8,2.4-0.8,4,0l35.2,20c2.4,0.8,3.2,4,1.6,5.6
		c-0.8,0.8-1.6,1.6-2.4,2.4l-84,36c-2.4,0.8-4.8,0-5.6-2.4c0-0.8,0-0.8,0-1.6v-35.2
		C246.416,135.531,247.216,133.931,248.816,133.131z"/>
	<path style="fill:#A6D84E;" d="M156.816,36.331l76-31.2c1.6-0.8,2.4-0.8,4,0l100,56c2.4,0.8,3.2,4,1.6,5.6
		c-0.8,0.8-1.6,1.6-2.4,2.4l-84.8,36c-1.6,0.8-3.2,0.8-4,0l-91.2-60.8c-2.4-0.8-3.2-4-1.6-5.6
		C155.216,37.131,156.016,36.331,156.816,36.331z"/>
	<path style="fill:#A6D84E;" d="M248.816,169.131l48.8-20.8c1.6-0.8,2.4-0.8,4,0l35.2,20c2.4,0.8,3.2,4,1.6,5.6
		c-0.8,0.8-1.6,1.6-2.4,2.4l-84,36c-2.4,0.8-4.8,0-5.6-2.4c0-0.8,0-0.8,0-1.6v-35.2
		C246.416,171.531,247.216,169.931,248.816,169.131z"/>
</g>
<path style="fill:#DAFFA4;" d="M280.016,309.131c-24,0.8-48-4-69.6-15.2l-5.6-3.2v-40l16.8,8c18.4,7.2,38.4,11.2,58.4,10.4
	c26.4,0,52-5.6,66.4-15.2l18.4-12.8v31.2C365.616,293.131,328.016,309.131,280.016,309.131z"/>
<path style="fill:#FFFFFF;" d="M280.016,276.331c-24,0.8-48-4-69.6-15.2l-5.6-3.2v-36.8l5.6-3.2c21.6-11.2,45.6-16,69.6-15.2
	c48,0,85.6,16,85.6,36.8S328.016,276.331,280.016,276.331z"/>
<g>
	<path style="fill:#DAFFA4;" d="M127.216,341.931c-48,0-85.6-16-85.6-36.8v-30.4l18.4,12c14.4,9.6,40,15.2,66.4,15.2
		s52-5.6,66.4-15.2l18.4-12v31.2C212.816,325.931,175.216,341.931,127.216,341.931z"/>
	<path style="fill:#DAFFA4;" d="M280.016,341.931c-24,0.8-48-4.8-69.6-15.2l-5.6-3.2v-40l16.8,8c18.4,7.2,38.4,11.2,58.4,10.4
		c26.4,0,52-5.6,66.4-15.2l18.4-12v31.2C365.616,325.931,328.016,341.931,280.016,341.931z"/>
	<path style="fill:#DAFFA4;" d="M280.016,375.531c-30.4,0-56.8-6.4-72.8-17.6l-8-5.6l4.8-9.6c0.8-1.6,0.8-3.2,1.6-4.8v-22.4l16.8,8
		c18.4,7.2,38.4,10.4,58.4,9.6c26.4,0,52-5.6,66.4-15.2l18.4-11.2v31.2C365.616,359.531,328.016,375.531,280.016,375.531z"/>
</g>
<path style="fill:#FFFFFF;" d="M127.216,243.531c-48,0-85.6-16-85.6-36.8s37.6-36.8,85.6-36.8s85.6,16,85.6,36.8
	S175.216,243.531,127.216,243.531z"/>
<g>
	<path style="fill:#DAFFA4;" d="M127.216,276.331c-48,0-85.6-16-85.6-36.8v-31.2l18.4,12c14.4,9.6,40,15.2,66.4,15.2
		s52-5.6,66.4-15.2l18.4-12v31.2C212.816,260.331,175.216,276.331,127.216,276.331z"/>
	<path style="fill:#DAFFA4;" d="M127.216,309.131c-48,0-85.6-16-85.6-36.8v-31.2l18.4,12c14.4,9.6,40,15.2,66.4,15.2
		s52-5.6,66.4-15.2l18.4-12v31.2C212.816,293.131,175.216,309.131,127.216,309.131z"/>
</g>
<g>
	<path style="fill:#FFFFFF;" d="M204.816,205.931c0-2.4-0.8-4.8-2.4-7.2l-2.4-3.2v-72.8l-96.8-64.8l56-23.2l96,64v112l-9.6,2.4
		c-8,1.6-15.2,4-22.4,7.2l-16.8,8L204.816,205.931z"/>
	<path style="fill:#FFFFFF;" d="M216.816,205.931v3.2c8-3.2,16.8-6.4,25.6-8v-96l-84.8-56.8l-28.8,12l80,53.6c2.4,1.6,3.2,4,3.2,6.4
		v71.2C215.216,195.531,216.816,201.131,216.816,205.931z"/>
</g>
<path style="fill:#1B230D;" d="M294.416,198.731l44-18.4c4-1.6,5.6-6.4,4-10.4c-0.8-1.6-1.6-3.2-3.2-4l-21.6-12.8l21.6-8.8
	c4-1.6,5.6-6.4,4-10.4c-0.8-1.6-1.6-3.2-3.2-4l-22.4-12.8l21.6-8.8c4-1.6,5.6-6.4,4-10.4c-0.8-1.6-1.6-3.2-3.2-4l-22.4-12l21.6-8.8
	c4-1.6,5.6-6.4,4-10.4c-0.8-1.6-1.6-3.2-3.2-4l-101.6-57.6c-2.4-0.8-4.8-1.6-7.2-0.8l-75.2,30.4c-0.8,0-1.6,0-2.4,0.8l-45.6,19.2
	l-93.6,38.4c-4,1.6-6.4,6.4-4.8,10.4c0.8,1.6,1.6,3.2,3.2,4l22.4,12.8l-20.8,9.6c-4,1.6-6.4,6.4-4.8,10.4c0.8,1.6,1.6,3.2,3.2,4
	l22.4,12.8l-20.8,8.8c-4,1.6-6.4,6.4-4.8,10.4c0.8,1.6,1.6,3.2,3.2,4l22.4,12.8l-20.8,8.8c-4,1.6-5.6,6.4-4,10.4
	c0.8,1.6,1.6,2.4,3.2,3.2l24.8,14.4v112c0,26.4,46.4,40.8,89.6,40.8c28.8,0,59.2-6.4,76-19.2c16,12,44,19.2,76,19.2
	c43.2,0,89.6-14.4,89.6-40.8v-98.4C369.616,215.531,332.816,201.931,294.416,198.731z M317.616,171.531l-59.2,24.8v-18.4l40.8-16.8
	L317.616,171.531z M317.616,135.531l-59.2,24.8v-18.4l40.8-16.8L317.616,135.531z M317.616,100.331l-59.2,24.8v-18.4l40.8-16.8
	L317.616,100.331z M234.416,17.131l83.2,47.2l-66.4,28l-76-50.4L234.416,17.131z M36.016,98.731l74.4-30.4l76.8,51.2l-67.2,28.8
	L36.016,98.731z M36.016,134.731l17.6-7.2l61.6,36.8c2.4,1.6,4.8,1.6,7.2,0.8l73.6-31.2v18.4l-37.6,16c-21.6-3.2-44-3.2-65.6,0.8
	L36.016,134.731z M196.016,169.131v10.4c-4-1.6-8-4-12-4.8L196.016,169.131z M38.416,205.931v1.6l-2.4-1.6l2.4-0.8V205.931z
	 M36.016,169.931l17.6-7.2l17.6,10.4c-5.6,2.4-11.2,4.8-16,8L36.016,169.931z M200.816,337.931c0,10.4-28.8,24.8-73.6,24.8
	s-73.6-14.4-73.6-24.8v-8.8c16.8,11.2,45.6,16.8,73.6,16.8s56-5.6,73.6-16.8V337.931z M200.816,305.131c0,10.4-28.8,24.8-73.6,24.8
	s-73.6-14.4-73.6-24.8v-8.8c16.8,11.2,45.6,16.8,73.6,16.8s56-5.6,73.6-16.8V305.131z M200.816,272.331c0,10.4-28.8,24.8-73.6,24.8
	s-73.6-14.4-73.6-24.8v-8.8c16.8,11.2,45.6,16.8,73.6,16.8s56-5.6,73.6-16.8V272.331z M200.816,239.531c0,10.4-28.8,24.8-73.6,24.8
	s-73.6-15.2-73.6-24.8v-9.6c16.8,11.2,45.6,16.8,73.6,16.8s56-5.6,73.6-16.8V239.531z M127.216,231.531c-44.8,0-73.6-15.2-73.6-24.8
	s28.8-24.8,73.6-24.8s73.6,14.4,73.6,24.8S172.016,231.531,127.216,231.531L127.216,231.531z M208.016,113.931l-80-53.6l28.8-12
	l84.8,56.8v96c-8.8,1.6-17.6,4.8-25.6,8v-3.2c0-4.8-1.6-10.4-4.8-14.4v-71.2C212.016,117.931,210.416,115.531,208.016,113.931z
	 M353.616,337.931c0,10.4-28.8,24.8-73.6,24.8c-31.2,0-54.4-7.2-65.6-15.2c1.6-3.2,2.4-6.4,2.4-9.6v-3.2c20,8,41.6,12,63.2,11.2
	c27.2,0,56-5.6,73.6-16.8V337.931z M353.616,305.131c0,10.4-28.8,24.8-73.6,24.8c-21.6,0.8-44-4-63.2-13.6v-14.4
	c20,8,41.6,12,63.2,11.2c27.2,0,56-5.6,73.6-16.8V305.131z M353.616,272.331c0,10.4-28.8,24.8-73.6,24.8c-21.6,0.8-44-4-63.2-13.6
	v-15.2c20,8,41.6,12,63.2,11.2c27.2,0,56-5.6,73.6-16.8V272.331z M280.016,264.331c-21.6,0.8-44-4-63.2-13.6v-23.2
	c20-9.6,41.6-14.4,63.2-13.6c44.8,0,73.6,15.2,73.6,24.8S324.816,264.331,280.016,264.331z"/>
<g>
</g>
<g>
</g>
<g>
</g>
<g>
</g>
<g>
</g>
<g>
</g>
<g>
</g>
<g>
</g>
<g>
</g>
<g>
</g>
<g>
</g>
<g>
</g>
<g>
</g>
<g>
</g>
<g>
</g>
</svg>
