<svg height="480pt" viewBox="0 -56 480 480" width="480pt" xmlns="http://www.w3.org/2000/svg"><path d="m410 192h-10c-26.507812 0-48-21.492188-48-48v-24h-88v96h152zm0 0" fill="#cff09e"/><path d="m424 312c0 26.507812-21.492188 48-48 48s-48-21.492188-48-48 21.492188-48 48-48 48 21.492188 48 48zm0 0" fill="#79bd9a"/><path d="m392 312c0 8.835938-7.164062 16-16 16s-16-7.164062-16-16 7.164062-16 16-16 16 7.164062 16 16zm0 0" fill="#cff09e"/><path d="m168 312c0 26.507812-21.492188 48-48 48s-48-21.492188-48-48 21.492188-48 48-48 48 21.492188 48 48zm0 0" fill="#79bd9a"/><path d="m136 312c0 8.835938-7.164062 16-16 16s-16-7.164062-16-16 7.164062-16 16-16 16 7.164062 16 16zm0 0" fill="#cff09e"/><path d="m8 216v80c0 8.835938 7.164062 16 16 16h48c0-26.507812 21.492188-48 48-48s48 21.492188 48 48h96v-96zm0 0" fill="#a8dba8"/><path d="m440 216h-176v96h64c0-26.507812 21.492188-48 48-48s48 21.492188 48 48h32c8.835938 0 16-7.164062 16-16v-48c0-17.671875-14.328125-32-32-32zm0 0" fill="#a8dba8"/><path d="m224 176c-94.160156.097656-171.71875-73.933594-176-168h-24c-8.835938 0-16 7.164062-16 16v192h256v-40zm0 0" fill="#cff09e"/><path d="m264 120h64v96h-64zm0 0" fill="#a8dba8"/><path d="m120 88h96v80h-96zm0 0" fill="#a8dba8"/><path d="m152 88h32v32h-32zm0 0" fill="#cff09e"/><path d="m64 112h56v56h-56zm0 0" fill="#a8dba8"/><path d="m120 88h24v-32h-56v56h32zm0 0" fill="#79bd9a"/><path d="m424 216h16c17.671875 0 32 14.328125 32 32h-32c-8.835938 0-16-7.164062-16-16zm0 0" fill="#cff09e"/><g fill="#3b8686"><path d="m376 288c-13.253906 0-24 10.746094-24 24s10.746094 24 24 24 24-10.746094 24-24-10.746094-24-24-24zm0 32c-4.417969 0-8-3.582031-8-8s3.582031-8 8-8 8 3.582031 8 8-3.582031 8-8 8zm0 0"/><path d="m120 288c-13.253906 0-24 10.746094-24 24s10.746094 24 24 24 24-10.746094 24-24-10.746094-24-24-24zm0 32c-4.417969 0-8-3.582031-8-8s3.582031-8 8-8 8 3.582031 8 8-3.582031 8-8 8zm0 0"/><path d="m440 208h-17.761719l-16.398437-65.679688c-4.441406-17.8125-20.441406-30.316406-38.800782-30.320312h-95.039062v-88c0-13.253906-10.746094-24-24-24h-224c-13.253906 0-24 10.746094-24 24v272c0 13.253906 10.746094 24 24 24h40.640625c4.171875 27.351562 27.691406 47.558594 55.359375 47.558594s51.1875-20.207032 55.359375-47.558594h145.28125c4.171875 27.351562 27.691406 47.558594 55.359375 47.558594s51.1875-20.207032 55.359375-47.558594h24.640625c13.253906 0 24-10.746094 24-24v-48c0-22.089844-17.910156-40-40-40zm22.558594 32h-22.558594c-4.417969 0-8-3.582031-8-8v-8h8c10.144531.027344 19.179688 6.433594 22.558594 16zm-72-93.839844 15.203125 61.839844h-69.761719v-80h31.039062c11.007813 0 20.601563 7.484375 23.28125 18.160156zm-70.558594-18.160156v80h-48v-80zm-304-104c0-4.417969 3.582031-8 8-8h224c4.417969 0 8 3.582031 8 8v184h-240zm0 272v-72h240v80h-80.640625c-4.171875-27.351562-27.691406-47.558594-55.359375-47.558594s-51.1875 20.207032-55.359375 47.558594h-40.640625c-4.417969 0-8-3.582031-8-8zm104 56c-22.089844 0-40-17.910156-40-40s17.910156-40 40-40 40 17.910156 40 40-17.910156 40-40 40zm256 0c-22.089844 0-40-17.910156-40-40s17.910156-40 40-40 40 17.910156 40 40-17.910156 40-40 40zm80-48h-24.640625c-4.171875-27.351562-27.691406-47.558594-55.359375-47.558594s-51.1875 20.207032-55.359375 47.558594h-48.640625v-80h144v8c0 13.253906 10.746094 24 24 24h24v40c0 4.417969-3.582031 8-8 8zm0 0"/><path d="m216 80h-64v-24c0-4.417969-3.582031-8-8-8h-56c-4.417969 0-8 3.582031-8 8v48h-16c-4.417969 0-8 3.582031-8 8v56c0 4.417969 3.582031 8 8 8h152c4.417969 0 8-3.582031 8-8v-80c0-4.417969-3.582031-8-8-8zm-40 16v16h-16v-16zm-80-32h40v16h-16c-4.417969 0-8 3.582031-8 8v16h-16zm-24 56h40v40h-40zm136 40h-80v-64h16v24c0 4.417969 3.582031 8 8 8h32c4.417969 0 8-3.582031 8-8v-24h16zm0 0"/></g></svg>