<svg id="Layer_1" height="512" viewBox="0 0 128 128" width="512" xmlns="http://www.w3.org/2000/svg" data-name="Layer 1"><path d="m57.529 81.11a1.75 1.75 0 0 0 .676-3.364 14.9 14.9 0 0 1 -2.858-25.9 13.179 13.179 0 0 1 1.809-1.116 1.239 1.239 0 0 0 .117-.054 14.735 14.735 0 0 1 2.893-1.093l-2.453 3.348a1.75 1.75 0 1 0 2.823 2.069l4.876-6.653.007-.013a1.668 1.668 0 0 0 .14-.238c.012-.023.026-.044.037-.067a1.98 1.98 0 0 0 .073-.213c.012-.04.028-.079.037-.119s.015-.109.022-.164a1.675 1.675 0 0 0 .019-.186c0-.01 0-.02 0-.03 0-.038-.009-.074-.011-.112a1.957 1.957 0 0 0 -.021-.2c-.008-.047-.022-.09-.034-.135a1.949 1.949 0 0 0 -.061-.2c-.015-.038-.035-.073-.052-.11a1.7 1.7 0 0 0 -.107-.2c-.018-.029-.04-.054-.06-.081a1.591 1.591 0 0 0 -.153-.186c-.022-.023-.046-.041-.069-.062a1.709 1.709 0 0 0 -.148-.133l-6.651-4.87a1.75 1.75 0 0 0 -2.068 2.823l3.131 2.3a18.264 18.264 0 0 0 -3.649 1.36c-.036.015-.071.031-.106.049a16.581 16.581 0 0 0 -2.4 1.461 18.4 18.4 0 0 0 3.561 31.958 1.754 1.754 0 0 0 .68.131z"/><path d="m71.146 47.026a1.75 1.75 0 1 0 -1.346 3.228 14.9 14.9 0 0 1 2.858 25.9 13.179 13.179 0 0 1 -1.809 1.116 1.239 1.239 0 0 0 -.117.054 14.735 14.735 0 0 1 -2.893 1.093l2.453-3.348a1.75 1.75 0 1 0 -2.828-2.069l-4.876 6.65-.007.013a1.668 1.668 0 0 0 -.14.238c-.012.023-.026.044-.037.067a1.908 1.908 0 0 0 -.073.213c-.012.04-.028.079-.037.119s-.015.109-.022.164a1.675 1.675 0 0 0 -.019.186v.03c0 .038.009.074.011.112a1.957 1.957 0 0 0 .021.2c.008.047.022.09.034.135a1.949 1.949 0 0 0 .061.2c.015.038.035.074.053.11a1.687 1.687 0 0 0 .106.2c.018.029.04.054.06.082a1.668 1.668 0 0 0 .153.185c.022.023.047.042.07.063a1.7 1.7 0 0 0 .147.132l6.654 4.876a1.75 1.75 0 0 0 2.068-2.823l-3.131-2.3a18.264 18.264 0 0 0 3.649-1.36c.036-.015.071-.031.106-.049a16.581 16.581 0 0 0 2.395-1.461 18.4 18.4 0 0 0 -3.561-31.958z"/><path d="m97.808 4.75h-67.616a7.759 7.759 0 0 0 -7.75 7.75v103a7.759 7.759 0 0 0 7.75 7.75h67.616a7.759 7.759 0 0 0 7.75-7.75v-103a7.759 7.759 0 0 0 -7.75-7.75zm-16.425 3.5-2.483 5.167h-29.8l-2.483-5.167zm20.675 107.25a4.255 4.255 0 0 1 -4.25 4.25h-67.616a4.255 4.255 0 0 1 -4.25-4.25v-103a4.255 4.255 0 0 1 4.25-4.25h12.541l3.69 7.675a1.749 1.749 0 0 0 1.577.992h32a1.749 1.749 0 0 0 1.577-.992l3.69-7.675h12.541a4.255 4.255 0 0 1 4.25 4.25z"/><path d="m74.75 106.583h-21.5a1.75 1.75 0 0 0 0 3.5h21.5a1.75 1.75 0 0 0 0-3.5z"/></svg>