<svg id="Layer_1" enable-background="new 0 0 496 496" height="512" viewBox="0 0 496 496" width="512" xmlns="http://www.w3.org/2000/svg"><path d="m432 125h-368c-35.29 0-64 28.71-64 64v118c0 35.29 28.71 64 64 64h368c35.29 0 64-28.71 64-64v-118c0-35.29-28.71-64-64-64zm32 182c0 17.645-14.355 32-32 32h-368c-17.645 0-32-14.355-32-32v-118c0-17.645 14.355-32 32-32h368c17.645 0 32 14.355 32 32zm-305.853-60.661-3.327 1.661 3.327 1.661c15.07 7.524 9.661 30.318-7.159 30.318-4.698 0-6.709-1.476-15.988-6.108v10.793c0 8.836-7.164 16-16 16s-16-7.164-16-16v-10.793l-8.853 4.42c-7.906 3.947-17.515.738-21.462-7.168s-.738-17.515 7.168-21.462l3.327-1.661-3.327-1.661c-7.906-3.947-11.115-13.556-7.168-21.462s13.557-11.116 21.462-7.168l8.853 4.42v-10.793c0-8.836 7.164-16 16-16s16 7.164 16 16v10.793l8.853-4.42c7.906-3.947 17.515-.738 21.462 7.168s.738 17.515-7.168 21.462zm244.853 38.661c0 8.836-7.164 16-16 16s-16-7.164-16-16c0-9.673 7.544-16.336 16-16.336 8.426 0 16 6.629 16 16.336zm0-73.664v25.164c0 8.836-7.164 16-16 16s-16-7.164-16-16v-25.164c0-8.836 7.164-16 16-16s16 7.164 16 16zm-115.853 35.003-3.327 1.661 3.327 1.661c15.07 7.524 9.661 30.318-7.159 30.318-4.698 0-6.709-1.476-15.988-6.108v10.793c0 8.836-7.164 16-16 16s-16-7.164-16-16v-10.793l-8.853 4.42c-7.906 3.947-17.515.738-21.462-7.168s-.738-17.515 7.168-21.462l3.327-1.661-3.327-1.661c-7.906-3.947-11.115-13.556-7.168-21.462s13.556-11.116 21.462-7.168l8.853 4.42v-10.793c0-8.836 7.164-16 16-16s16 7.164 16 16v10.793l8.853-4.42c7.906-3.947 17.515-.738 21.462 7.168s.738 17.515-7.168 21.462z"/></svg>